<?xml version="1.0"?>
<svg xmlns="http://www.w3.org/2000/svg" height="512px" version="1.1" viewBox="-25 0 512 512.00078" width="512px" class=""><g><g id="surface1">
<path d="M 349.484375 295.621094 C 349.484375 294.351562 348.101562 292.96875 346.832031 292.96875 L 300.695312 292.96875 C 299.425781 292.96875 298.734375 294.351562 298.734375 295.621094 L 298.734375 305.65625 L 349.484375 305.65625 Z M 349.484375 295.621094 " data-original="#000000" class="active-path" data-old_color="#000000" fill="#00ACFF"/>
<path d="M 279.011719 455.597656 L 368.515625 455.597656 L 380.28125 324.109375 L 267.363281 324.109375 Z M 279.011719 455.597656 " data-original="#000000" class="active-path" data-old_color="#000000" fill="#00ACFF"/>
<path d="M 323.992188 236.335938 C 247.984375 236.335938 186.160156 298.15625 186.160156 374.167969 C 186.160156 450.175781 247.984375 512 323.992188 512 C 400.003906 512 461.828125 450.175781 461.828125 374.167969 C 461.828125 298.15625 400.003906 236.335938 323.992188 236.335938 Z M 414.304688 324.109375 L 398.851562 324.109375 L 386.277344 465.863281 C 385.816406 470.59375 381.894531 474.054688 377.050781 474.054688 L 270.589844 474.054688 C 265.863281 474.054688 261.824219 470.59375 261.363281 465.863281 L 248.792969 324.109375 L 233.335938 324.109375 C 228.261719 324.109375 224.109375 319.957031 224.109375 314.882812 C 224.109375 309.804688 228.261719 305.65625 233.335938 305.65625 L 280.28125 305.65625 L 280.28125 295.621094 C 280.28125 284.199219 289.277344 274.511719 300.695312 274.511719 L 346.832031 274.511719 C 358.25 274.511719 367.941406 284.199219 367.941406 295.621094 L 367.941406 305.65625 L 414.308594 305.65625 C 419.382812 305.65625 423.535156 309.804688 423.535156 314.882812 C 423.535156 319.957031 419.382812 324.109375 414.304688 324.109375 Z M 414.304688 324.109375 " data-original="#000000" class="active-path" data-old_color="#000000" fill="#00ACFF"/>
<path d="M 172.667969 334.488281 L 72.433594 334.488281 C 67.359375 334.488281 63.207031 330.339844 63.207031 325.261719 C 63.207031 320.1875 67.359375 316.035156 72.433594 316.035156 L 178.78125 316.035156 C 184.660156 301.042969 192.503906 288.351562 202.195312 275.664062 L 72.433594 275.664062 C 67.359375 275.664062 63.207031 271.515625 63.207031 266.4375 C 63.207031 261.363281 67.359375 257.210938 72.433594 257.210938 L 219.726562 257.210938 C 247.40625 232.988281 284.085938 217.535156 324.109375 217.535156 C 327.914062 217.535156 331.03125 217.878906 335.644531 218.226562 L 335.644531 123.414062 L 266.4375 123.414062 C 239.679688 123.414062 217.996094 101.5 217.996094 74.855469 L 217.996094 0 L 41.0625 0 C 18.222656 0 0 18.683594 0 41.636719 L 0 393.660156 C 0 416.613281 18.222656 434.835938 41.0625 434.835938 L 180.046875 434.835938 C 172.089844 416.382812 167.707031 395.621094 167.707031 373.9375 C 167.589844 360.328125 169.4375 347.175781 172.667969 334.488281 Z M 72.433594 199.539062 L 189.277344 199.539062 C 194.351562 199.539062 198.503906 203.691406 198.503906 208.769531 C 198.503906 213.84375 194.351562 217.996094 189.277344 217.996094 L 72.433594 217.996094 C 67.359375 217.996094 63.207031 213.84375 63.207031 208.769531 C 63.207031 203.691406 67.359375 199.539062 72.433594 199.539062 Z M 72.433594 199.539062 " data-original="#000000" class="active-path" data-old_color="#000000" fill="#00ACFF"/>
<path d="M 266.4375 104.960938 L 322.957031 104.960938 L 236.449219 13.957031 L 236.449219 74.855469 C 236.449219 91.351562 249.828125 104.960938 266.4375 104.960938 Z M 266.4375 104.960938 " data-original="#000000" class="active-path" data-old_color="#000000" fill="#00ACFF"/>
</g></g> </svg>
